<?xml version="1.0" encoding="utf-8"?>
<!-- Generator: Adobe Illustrator 19.0.0, SVG Export Plug-In . SVG Version: 6.00 Build 0)  -->
<svg version="1.1" id="Calque_1" xmlns="http://www.w3.org/2000/svg" xmlns:xlink="http://www.w3.org/1999/xlink" x="0px" y="0px"
	 viewBox="83 167 165.6 185.5" style="enable-background:new 83 167 165.6 185.5;" xml:space="preserve">
<style type="text/css">
	.st0{fill:#DC9319;}
	.st1{fill:#F77000;}
	.st2{fill:#F77203;}
	.st3{fill:#F77001;}
	.st4{fill:#F77102;}
	.st5{fill:#F67002;}
	.st6{fill:#EFECE8;}
	.st7{fill:#CBCAC9;}
	.st8{fill:#E6E6E6;}
	.st9{fill:#BBBBBB;}
	.st10{fill:#CEC8BD;}
	.st11{fill:#D9AD88;}
	.st12{fill:#FCFAF1;}
	.st13{fill:#AAA191;}
	.st14{fill:#D7D7D6;}
</style>
<g>
	<path class="st0" d="M194.9,172.9c0.6-0.7,0.8-1.6,1.6-2.4c1.2,2.2,2.5,4.4,3.7,6.5c7.3,12.9,14.6,25.8,21.9,38.8
		c4.3,7.6,8.5,15.2,12.8,22.7c0.1,0.2,0.3,0.4,0.4,0.6s0.1,0.3,0,0.5c-0.1,0-0.1,0.1-0.1,0.1c0,0.1-0.1,0.2-0.2,0.3l0,0
		c0,0.1-0.1,0.2-0.3,0.3l0,0c0,0.1-0.1,0.2-0.2,0.2l0,0c0,0.1-0.1,0.2-0.2,0.3l0,0c-0.1,0.2-0.2,0.4-0.4,0.5
		c-4.7,4.6-9.2,9.3-13.9,13.8c-5.9,5.7-11.9,11.4-17.7,17.2c-1.4,1.4-2.5,2.8-2.2,4.9c-0.3,8.8,0,17.6-0.1,26.4
		c2.6,0.3,5-0.1,7.3,0.2c0.4,0.4,0.2,0.9,0.2,1.4c0,10.8,0,21.6,0,32.4c0,2.5-0.3,4.8-1.5,7c-0.9,2-2.4,3.3-4.3,4.2
		c-3.4,1.5-6.8,1.6-10-0.4c-2.4-1.5-4.2-3.4-4.8-6.4c-0.3-1.6-0.4-3.2-0.4-4.8c0-10.1,0-20.3,0-30.4c0.3-0.9,0.1-1.9,0.4-2.8
		c0.1,0,0.2-0.1,0.2-0.1c1.5-0.1,3.1,0,4.6-0.3c0.3,0,0.5,0,0.8,0s0.5,0,0.8,0c0.6-0.1,0.5-0.6,0.5-1c0-8.9,0-17.7,0-26.6
		c0-0.7-0.3-1.3-0.8-1.8c-1.9-1.9-3.7-3.9-5.7-5.6c-7.1-6.1-13.1-13.2-20-19.5c-2.8-2.6-5.5-5.2-8.2-7.8c-0.3-0.4-0.8-0.8-1.1-1.2
		c-0.4-0.9,0.2-1.6,0.6-2.3c1.7-3,3.4-6,5-9c3.6-6.5,7.2-12.9,10.8-19.3c4.6-8.2,9.1-16.4,13.8-24.6
		C190.3,180.9,192.3,176.7,194.9,172.9z"/>
	<path class="st1" d="M149.8,188v-18c-4.1,0-8.2,0-12.3-0.1c-9.4-0.1-18.9-0.1-28.3-0.1c-4.3,0-8.6,0.1-12.8,0.2
		c-0.9,0-1.9,0-2.8-0.1c-2.9,0-5.8,0.1-8.7,0.1c-0.6,0.2-1.2,0.2-1.8,0.1c0,6.4-0.1,12.8,0.1,19.1c0.6,0.1,0.9,0.1,1.3,0.1h64.1
		c0.4,0,0.8,0.1,1.1-0.1C149.9,188.9,149.8,188.4,149.8,188z"/>
	<path class="st2" d="M149.5,219.1c0,6.9,0,13.8,0,20.8c-22.1,0-44.1,0-66.2,0c0-6.9,0-13.8,0-20.8
		C105.4,219.1,127.4,219.1,149.5,219.1z"/>
	<path class="st3" d="M119.5,192.7c19.9,0,39.7,0,59.9,0c-4.3,7.8-8.6,15.3-12.8,22.9c-15.8,0-31.4,0-47.1,0
		C119.5,208,119.5,200.4,119.5,192.7z"/>
	<path class="st4" d="M83.4,215.6c0-7.6,0-15.2,0-22.8c10.9,0,21.7,0,32.6,0c0,7.6,0,15.2,0,22.8C105.1,215.6,94.3,215.6,83.4,215.6
		z"/>
	<path class="st5" d="M153.2,170v19.1c0.6,0.4,1.1,0.3,1.5,0.3H180c0.5,0,1,0.1,1.4-0.2c1.7-2.9,3.3-5.8,4.9-8.7
		c1.9-3.6,4-7.1,6-10.7C179.3,169.8,166.2,170,153.2,170z"/>
	<path class="st6" d="M194.9,172.9c-1.1,2.5-2.6,4.7-3.9,7.1c-5.4,9.7-10.8,19.3-16.3,29c-4.8,8.6-9.6,17.2-14.4,25.8
		c-0.7,1.3-1.4,2.6-2.1,3.8c-0.3,0.5-0.4,0.9-0.2,1.5c0,0.1-0.1,0.1-0.1,0.2c-0.7,1.1-0.7,1.9,0.1,2.9c1.8,2.2,3.9,4.2,6,6.1
		c0.5,0.5,1,0.9,1.5,1.4c4.9,5.1,10.2,9.9,15.2,14.9c3.2,3.1,6.4,6.3,9.6,9.4c1.6,1.5,2.3,3.2,2.3,5.4c-0.1,7.1,0,14.1,0,21.2
		c0,0.6,0,1.1,0.1,1.7c0,0.1,0,0.2,0,0.3c-0.2,0.3-0.6,0.1-0.8,0.2c-1.6,0-3.2,0-4.8,0c1.2-0.5,2.5,0.1,3.6-0.4
		c0.1-0.1,0.3-0.1,0.4-0.1c0.4-0.4,0.3-1,0.3-1.4c0-7,0-14.1,0-21.1c0-2-0.7-3.5-2-4.8c-4.2-4.2-8.3-8.4-12.7-12.4
		c-2.5-2.3-4.7-4.7-7.2-7c-3.8-3.5-7.3-7.1-10.9-10.7c-0.6-0.6-1.1-1.2-1.6-1.9c-0.9-1.2-1-2.6-0.4-4c1-2.6,2.5-4.9,3.8-7.3
		c1.6-3,3.2-5.9,4.9-8.9c2.6-4.7,5.3-9.3,7.9-13.9c2.3-4.1,4.6-8.3,6.9-12.4c3.3-5.9,6.6-11.8,9.9-17.7c1.3-2.3,2.5-4.7,4.5-6.5
		C194.5,173.1,194.6,172.9,194.9,172.9z"/>
	<path class="st2" d="M153.1,219.1c3.9,0,7.6,0,11.6,0c-3.9,6.9-7.6,13.7-11.4,20.5c-0.1,0-0.1,0-0.2,0
		C153.1,232.7,153.1,225.9,153.1,219.1z"/>
	<path class="st7" d="M201.8,348.6c1.7-1,2.9-2.4,4-3.8c-0.5,3.1-2.4,5.2-5,6.4c-4.3,1.9-8.5,1.8-12.3-1.4c-1.8-1.5-2.9-3.6-3.3-6.1
		c-0.2-1.3-0.2-2.7-0.2-4c0-9.4,0-18.8,0-28.2c0-1.4-0.1-2.9,0.4-4.4c1.2-0.5,0.8-2,1.3-3.1c0,1,0,1.9-0.1,2.9s-0.2,2-0.2,3
		c0,10-0.1,20,0,30c0,3.5,1,6.8,4.2,9.1c2.4,1.7,4.9,1.9,7.6,1.3C199.6,349.9,200.7,349.2,201.8,348.6z"/>
	<path class="st8" d="M233.8,241.1c0.1-0.1,0.3-0.2,0.4-0.3c0.4,2.4-1.3,3.8-2.7,5.3c-3.2,3.3-6.5,6.4-9.8,9.6
		c-5,4.9-10,10-15.1,14.8c-2.2,2.1-4.3,4.3-6.5,6.6c0,8.7,0,17.6,0,26.4c0.4,0.4,1,0.2,1.5,0.3c1.9,0.1,3.7-0.3,5.6,0.2
		c-2.4,0-4.9,0-7.4,0c0-9.1,0-18.1,0-27.1c0-1.3,0.6-2.2,1.5-3.1c4-3.8,7.9-7.7,11.9-11.5c4.9-4.7,9.7-9.5,14.5-14.3
		c1.4-1.4,3-2.7,4.3-4.3C232.6,242.8,232.9,241.8,233.8,241.1z"/>
	<path class="st9" d="M32.9,167"/>
	<path class="st9" d="M42.6,168.5"/>
	<path class="st10" d="M149.8,170c-0.1,0-0.2,0-0.3,0v19.3c-0.1,0-0.1,0-0.1,0.1c0,0,0,0.1,0.1,0.1c0.5-0.3,0.3-0.9,0.3-1.3V170z"/>
	<path class="st10" d="M153.2,187.9v-12c0-2,0.1-3.9,0.1-5.9c-0.1,0-0.2,0-0.3,0v19.6c0.3,0,0.4,0.1,0.6,0.1h26.9
		c0.3,0,0.8,0.2,0.8-0.4h-27.9C153.1,188.8,153.2,188.3,153.2,187.9z"/>
	<path class="st11" d="M84.5,189c-0.3,0-0.6,0.1-1-0.2v-18.6c-0.2,0-0.3,0-0.5,0v18.9c0.7,0.5,1.2,0.4,1.7,0.4h63.6
		c0.4,0,0.9-0.1,1.4-0.1c0,0,0-0.1,0-0.2c-0.1,0-0.2,0-0.4-0.2L84.5,189L84.5,189z"/>
	<path class="st8" d="M235.2,239.6c0-0.2,0-0.3,0-0.5c0.2,0,0.3,0,0.4,0.2C235.5,239.6,235.4,239.6,235.2,239.6z"/>
	<path class="st8" d="M234.6,240.3c0-0.1,0.1-0.2,0.3-0.3C234.9,240.2,234.8,240.3,234.6,240.3z"/>
	<path class="st8" d="M234.4,240.5c0.1-0.1,0.2-0.2,0.2-0.2C234.6,240.5,234.6,240.5,234.4,240.5z"/>
	<path class="st8" d="M234.2,240.8c0-0.2,0.1-0.2,0.2-0.3C234.4,240.7,234.3,240.8,234.2,240.8z"/>
	<path class="st8" d="M234.9,240.1c0.1-0.1,0.2-0.2,0.2-0.3C235.1,239.9,235.1,240,234.9,240.1z"/>
	<path class="st12" d="M197.2,210.8c0.5,20.1,1.1,40.2,1.6,60.3c-1.4,0-2.6,0-4.1,0c0.5-20.9,1.1-41.8,1.6-62.7
		c0.2-1.4-0.1-2.9,0.3-4.3C197.3,206.3,197,208.6,197.2,210.8z"/>
	<path class="st13" d="M158.9,241.1c1.1,0.6,1.9,1.7,2.8,2.5c8.1,7.6,15.8,15.5,23.8,23.2c2.8,2.7,5.5,5.4,8.4,8.1
		c0,0.3,0,0.6,0,0.9c0,9,0,18,0,27c0,0.5,0.3,1.2-0.7,1.2c-0.2-0.6-0.1-1.3-0.1-1.9c0-7.6,0-15.2,0-22.8c0-1.7-0.6-2.9-1.6-4.1
		c-2.3-2.8-5.1-5-7.6-7.6c-1.2-1.3-2.6-2.5-3.8-3.8c-1.9-2-3.9-3.9-6-5.7c-1.4-1.3-2.7-2.8-4.2-4.1c-2-1.8-3.9-3.7-5.8-5.7
		c-1.6-1.6-3.3-3.1-4.8-4.9C158.8,242.7,158.3,242,158.9,241.1z"/>
	<path class="st9" d="M158.9,241.1c-0.2,1.6,1,2.5,1.9,3.4c2.3,2.2,4.5,4.4,6.7,6.6c3.5,3.4,7,6.9,10.6,10.3
		c3.2,3.2,6.4,6.4,9.7,9.5c1.9,1.8,3.8,3.6,5.2,5.9c0.3,0.4,0.4,0.8,0.4,1.3c0,8.2,0,16.5,0,24.7c0,0.4,0,0.8-0.2,1.2
		c-0.2,0-0.5,0-0.7,0c-0.1,0-0.1-0.1-0.1-0.1s0-0.1,0.1-0.1l0,0c0.3-6.9,0.1-13.7,0.2-20.6c0-1.5-0.2-3-0.2-4.5c0-1.1-0.6-2-1.3-2.7
		c-5.8-6-12-11.7-17.9-17.6c-1.9-1.9-3.9-3.7-5.8-5.7c-2.6-2.7-5.4-5.1-8-7.7c-1.1-1.1-2.1-2.2-1.7-4c0-0.2,0.1-0.5,0.2-0.7h0.1
		C158.4,240.3,158.7,240.6,158.9,241.1z"/>
	<path class="st10" d="M233.8,241.1c-1,2.3-2.6,4-4.5,5.6c-0.3,0.2-0.5,0.5-0.8,0.7c-3.4,3.4-6.7,6.8-10.2,10.1
		c-4.2,4-8.3,8.1-12.5,12.2c-1.4,1.3-2.8,2.6-4.1,3.9c-0.9,0.9-1.9,1.7-2,3.1c0-0.8,0-1.5,0-2.2c3.1-3.1,6.1-6.3,9.2-9.3
		c8.1-7.8,16.1-15.7,24.1-23.6C233.2,241.5,233.4,241.1,233.8,241.1z"/>
	<path class="st12" d="M196.3,333.7c2.1,0,3.6,1.6,3.6,3.6c0,1.9-1.7,3.6-3.6,3.6c-2,0-3.6-1.7-3.6-3.7
		C192.7,335.1,194.2,333.7,196.3,333.7z"/>
	<path class="st13" d="M201.8,348.6c-1.8,1.6-3.9,2.4-6.4,2.3c-2.1-0.1-3.8-0.8-5.4-2.1c-2.3-1.8-3.3-4.1-3.5-6.9
		c-0.6-7.1-0.1-14.2-0.2-21.3c-0.1-3.5,0-7,0-10.6c0-1.1,0.1-2.1,0.4-3.2c0,4.5,0,9,0,13.5c0,6.6-0.1,13.2,0,19.8c0.1,4,3,7.7,7.1,9
		c2.5,0.7,5,0.6,7.4-0.5C201.4,348.6,201.6,348.6,201.8,348.6z"/>
	<path class="st10" d="M197.2,210.8c-0.4-1.7-0.1-3.4-0.4-5.1c-0.1-0.5,0-0.9-0.1-1.4c-0.4,1.3,0.1,2.8-0.4,4.1
		c-0.1-4.4,0-8.8,0.4-13.2C197.1,200.4,197.3,205.6,197.2,210.8z"/>
	<path class="st14" d="M192.4,303.7c0,0.1,0,0.1,0,0.2c-0.2,0-0.5,0-0.7,0C191.9,303.7,192.2,303.7,192.4,303.7z"/>
	<path class="st14" d="M157.8,240.1c0,0.8,0.1,1.6,0.1,2.5c1.5,2,3.4,3.7,5.3,5.4c2.1,1.9,4.1,4.1,6.1,6.1
		c4.3,4.1,8.4,8.3,12.7,12.4c3.1,2.9,6.1,6,9.1,9c1.1,1,1.5,2.2,1.6,3.7c0.4,6.5,0.1,12.9,0.2,19.4c0,1.6-0.3,3.2-0.3,4.8
		c0,0.1-0.2,0.3-0.2,0.4c-0.3-0.5-0.2-1-0.2-1.5c0-7.5,0-14.9,0-22.4c0-1.6-0.5-2.9-1.6-3.9c-2.5-2.4-4.9-5.1-7.5-7.3
		c-0.8-0.7-1.6-1.6-2.3-2.3c-5.2-5.1-10.3-10.2-15.6-15.2c-2.2-2.1-4.4-4.2-6.6-6.4c-0.7-0.7-1.4-1.4-1.5-2.4
		C156.9,241.3,156.7,240.4,157.8,240.1z"/>
</g>
</svg>
