<?xml version="1.0" encoding="utf-8"?>
<!-- Generator: Adobe Illustrator 19.0.0, SVG Export Plug-In . SVG Version: 6.00 Build 0)  -->
<svg version="1.1" id="Calque_1" xmlns="http://www.w3.org/2000/svg" xmlns:xlink="http://www.w3.org/1999/xlink" x="0px" y="0px"
	 viewBox="8 24.9 612 792" style="enable-background:new 8 24.9 612 792;" xml:space="preserve">
<g>
	<g>
		<path d="M192.5,353.7c-9.5-5.4-18.9-9.3-29.4-9.7c-6.5-0.3-11.5,2.9-13.9,8.8c-2.5,6.1-4,12.5-6.2,19.5c0.7-11,2.4-20.9,9.8-28.8
			c5.8-6.2,13.3-6.9,20.8-5.1c9.6,2.4,18.9,5.9,28.3,8.9c-11.1,25.4-13.5,51.6-16.8,77.7c13.5-32.4,29-63.5,53.5-89.1
			c0.5,0.2,1,0.5,1.4,0.7c-0.6,1.4-1.1,2.9-1.8,4.2c-14,25.7-20.3,53.3-20.1,82.5c0,3.8,0.9,7.6,1.8,11.3c0.3,1.4,1.9,3.2,3,3.3
			c1.2,0.2,3-1.2,4-2.3c1.5-1.9,2.5-4.1,4-6.6c0.1,5.2-5.7,14.9-9.8,16.4c-4.2,1.5-6.7-1.1-7.4-4.5c-1.2-5.8-2.2-11.8-2.1-17.7
			c0.4-22,5-43.2,12.8-63.8c0.4-1.1,0.9-2.2,1.2-3.2c0-0.1-0.1-0.3-0.4-1.2c-3.3,5-6.5,9.4-9.4,14.1c-13.4,21.9-24.5,45-32.2,69.5
			c-0.9,2.7-3.1,5.1-5.6,7.2c0.3-26.1,4.4-51.5,10.1-76.8c-0.9,1.9-1.8,3.9-2.6,5.8c-0.9,2-1.7,4-2.7,5.9
			c-8.3,18.2-16.7,36.4-30.4,51.3c-7.3,7.9-15.5,14.1-27.1,13.8c-6-0.2-10.6-2.6-13.9-7.4c-7.4-10.6-7.3-30.8,0.3-41.3
			c1.5-2,3.5-3.6,5.9-4.9c-4.5,6.6-6,13.8-5.4,21.3c0.4,4.8,1.1,9.7,2.7,14.1c4,11.4,13.1,15.4,23.8,10c5.4-2.7,10.4-6.7,14.5-11.2
			c13-14,20.9-31.1,28.7-48.3C185.6,370.2,188.9,362.1,192.5,353.7z"/>
		<path d="M366.4,528.8c-5.1,2.2-9.6,5.2-14.4,6.1c-10.7,2-17.8-3.8-19-14.6c-1.8-16.8,3.4-31.8,11.8-46.1
			c5.9-10.1,13.4-18.8,24.5-23.2c3.9-1.5,8.4-2.3,12.6-2.2c5.9,0.1,10.5,5,10.3,10.7c-0.2,6.8-3.6,12.4-7.1,18
			c-0.4-0.1-0.9-0.3-1.3-0.4c0.3-1.3,0.6-2.6,1-3.8c1.8-5.3,3.7-11-1.4-15.3c-5.2-4.4-11.5-3.6-17.5-1c-9.3,4-14.9,11.6-18.9,20.4
			c-6.1,13.5-7.7,27.8-5.9,42.5c0.6,5,2.1,10,7.6,11.9c5.1,1.7,11.8-0.7,15.4-5.9c2.2-3.2,3.8-7,5.1-10.7c1.3-4,3.5-5.8,7.9-5.2
			c0.1,0.9,0.4,1.7,0.2,2.4c-3.1,15.1-7.3,29.7-15.3,43c-7.1,11.7-16.6,19.9-30.8,21.2c-11.4,1.1-20.7-4.2-24-13.8
			c-3.8-11.3-0.3-23.5,8.4-29c0.6-0.4,1.4-0.6,2.9-0.6c-5.6,5.9-5.8,12.9-5.4,20c0.8,12.5,7.7,20.5,18.2,20.5
			c7.5,0.1,14-2.7,19.1-8.3C359.6,554.8,362.9,541.8,366.4,528.8z"/>
		<path d="M265.4,403.3c-4.3,11.8-8.5,23.4-7.3,36c0.4,0.2,0.9,0.5,1.3,0.7c1.3-1.4,2.7-2.9,4.4-4.7c-0.2,1.2-0.1,2.3-0.6,2.8
			c-2.5,2.6-5.4,7.4-7.6,7.2c-4.3-0.5-3-5.7-3.3-9.2c-0.1-1.1-0.2-2.2-0.3-3.9c-2.6,4-4.6,7.6-7.2,10.7c-1.2,1.4-3.7,2.7-5.4,2.5
			c-1.3-0.2-2.9-2.7-3.2-4.5c-2.9-13.6,1-25.3,10.8-35c3.2-3.1,6.9-4.1,11.4-1.9C260,404.8,262.5,403.6,265.4,403.3z M242.6,439.1
			c0.6,0.2,1.1,0.4,1.7,0.6c1.5-2.1,3.3-4,4.3-6.3c2.8-6.5,5.3-13.2,8-19.9c1.1-2.8,0.9-5.3-1.9-6.9c-3-1.8-5.8-0.6-7.4,1.9
			c-2,3.2-3.8,6.7-4.7,10.3C240.9,425.5,239.6,432.4,242.6,439.1z"/>
		<path d="M287.6,383c-2.1,6.8-4.2,13.5-6.4,20.5c2.9,0.1,5.2,0.2,8.5,0.4c-1.4,1-2,1.8-2.5,1.7c-6-0.9-7.7,2.6-8.3,7.7
			c-0.9,7.3-2.1,14.5-2.8,21.7c-0.2,1.6,1.3,3.5,1.9,5.2c1.5-1.2,3-2.3,4.3-3.6c0.9-0.8,1.4-2,3.1-2.5c-1.5,2.7-2.5,5.8-4.6,7.9
			c-1.7,1.8-5.1,3.8-6.9,3.2c-1.8-0.6-3.6-4.3-3.7-6.7c-0.2-4.6,0.5-9.3,1.3-13.9c0.9-5.6,2.2-11.1,3.3-16.8c-1.6,0-3,0-4.4,0
			c0-0.4-0.1-0.7,0-0.7c7.5-3.7,7.6-11.6,10.2-18.1C282.5,384.5,283.2,383.8,287.6,383z"/>
		<path d="M369.6,433.5c-0.4,6-6,12.1-10.8,12.5c-3.7,0.3-5.9-1.3-7.2-4.8c-3.2-8.9,2.3-30.1,9.5-36.4c4.2-3.7,9.2-2.3,11,3
			c2,6.1-1.5,12.2-8.5,14.8c-2.3,0.8-6.1,1.6-6.3,2.9c-0.6,3.6-0.3,7.7,0.7,11.3c1.1,4,4.8,4.3,7.7,1.2
			C366.9,436.6,368.1,435.3,369.6,433.5z M357,421.1c7.2-0.7,10.5-4.6,9.3-9.8c-0.3-1.2-1.4-3-2.4-3.2s-3,1-3.5,2
			C359.1,413.4,358.2,417,357,421.1z"/>
		<path d="M323.8,433.2c-0.9,6-6.1,11.9-10.3,12.5c-3.8,0.6-6.3-0.9-7.6-4.7c-3-8.9,2.4-29.7,9.5-35.9c2.7-2.4,5.8-3.6,8.9-0.7
			c3.3,3,3.6,10.1,0.1,13.2c-3,2.7-7,4.2-10.5,6.4c-1.2,0.8-2.7,2.2-2.9,3.6c-0.4,2.4-0.4,5.1,0.2,7.4c0.5,1.8,2,4.2,3.6,4.6
			s3.9-1,5.6-2.1C321.5,436.7,322.2,435.2,323.8,433.2z M310.7,421.6c7.8-1.5,10.7-5.2,9.2-10.7c-0.3-1.1-1.5-2.7-2.2-2.7
			c-1.2,0-2.9,1-3.3,2C312.9,413.6,312,417.3,310.7,421.6z"/>
		<path d="M468.2,537.4c-0.1,4.3-6,9.9-11.2,10.3c-5.3,0.4-8.2-1.8-8.5-8c-0.5-10.9,2.6-20.8,10.5-28.6c3.5-3.5,8-3.6,10.7-0.7
			c3.3,3.4,3.3,8.9-0.8,11.9c-3.1,2.3-7.1,3.3-10.6,5.2c-1.4,0.8-3.2,2.3-3.3,3.6c-0.4,3.8-1.5,8.5,3,10.6c1.7,0.8,4.6-0.4,6.7-1.3
			C466.1,540,467.1,538.4,468.2,537.4z M454.5,525.4c8.2-0.7,12-4.1,10.6-9c-0.4-1.4-1.7-3-2.9-3.5c-0.9-0.3-3.2,0.7-3.7,1.7
			C457,518,455.9,521.5,454.5,525.4z"/>
		<path d="M330.1,445.8c2.1-12.7,4.2-25,6.3-37.3c-0.6-0.3-1.2-0.5-1.8-0.8c-1.4,1.5-2.8,3-4.2,4.4c-0.3-0.2-0.5-0.3-0.8-0.5
			c0.9-1.6,1.4-3.7,2.7-4.8c2-1.7,4.6-2.7,7-4c0.6,2.1,1.2,4.2,1.7,6.3c0.2,0.6,0.2,1.3,0.4,2.6c1.7-2.6,2.9-5,4.7-6.8
			c1.2-1.2,3.5-2.1,5.1-1.8c1,0.2,2,2.9,2,4.5c-0.1,2.4-1,4.7-1.6,7.4c-4-3.6-6.2-3.6-7.8,0.8c-2.7,7.3-4.5,14.8-6.4,22.4
			C336.2,442.2,335.9,446.1,330.1,445.8z"/>
		<path d="M382.3,547.2c3-11.4,6-22.5,6.4-35c-1.8,1.1-2.7,1.5-3.4,2.1c-0.7,0.6-1.1,1.5-2,2.8c0.2-4.4,4.7-9.3,7.8-8.7
			c6,1.2,2.9,6,3.4,9.4c1.7-2.4,3-5.1,5.1-7c1.5-1.3,4-1.5,6.1-2.2c0.5,2,1.3,3.9,1.4,5.9c0,1.5-0.9,3.1-1.4,4.8c-4-3.3-7-3.1-9,1.7
			c-3,7-5,14.4-7.1,21.7C388.4,546.5,386.6,548.3,382.3,547.2z"/>
		<path d="M391.3,413.8c0-1.6,0.4-3.3-0.1-4.7c-0.4-1.3-1.8-2.4-2.7-3.5c-1,1.2-3,2.4-3,3.5c0.3,3.9,1.1,7.8,2.1,11.6
			c0.8,3.4,2.6,6.5,3.1,9.9c0.8,5.1,0.1,10.2-4.4,13.5c-3.6,2.7-7.8,3.1-11.6,0.4c-3.9-2.7-2.6-6.4-1.1-9.9c0.5-1.3,1.4-2.5,2.9-3.4
			c-0.2,2.3-0.9,4.8-0.3,6.9c0.5,1.9,2.4,3.4,3.7,5.1c1.6-1.5,4.4-3,4.5-4.5c0.1-4.5-0.7-9.1-1.6-13.6c-0.8-4.5-2.6-8.9-2.9-13.4
			c-0.1-2.4,1.5-6.1,3.4-7.1c2.5-1.4,7-2.1,9-0.7c3.8,2.6,1.3,6.6,0.2,10C392.2,413.9,391.8,413.9,391.3,413.8z"/>
		<path d="M424.8,533.5c-0.3,3.3-1.2,5.8-0.6,7.8c0.5,1.7,2.4,4,4,4.2s4.7-1.4,5.1-2.7c0.8-3.2,0.9-6.8,0.3-10
			c-0.7-3.3-2.7-6.4-3.9-9.7c-2.2-6-0.8-11.9,3.8-13.4c2.9-1,6.9-1.1,9.3,0.3c1.4,0.8,0.6,5.4,0.8,8.2c-0.6,0-1.1,0.1-1.7,0.1
			c-0.1-1.5,0.1-3.1-0.5-4.3c-0.6-1.3-1.9-2.8-3.2-3.1c-0.8-0.2-3,1.5-3,2.4c0,3.2,0.3,6.5,1.1,9.6c1.1,4,3.5,7.6,4.3,11.6
			c1.4,6.6-2.8,12.4-9,13.2c-3.8,0.5-8.2,0.8-10.3-3.2C419.1,540.5,421.9,537.4,424.8,533.5z"/>
		<path d="M475.7,534.3c-0.3,2.2-1.2,4.4-0.6,6.2c0.6,1.9,2.4,4.8,3.8,4.9c1.9,0.1,5.2-1.7,5.7-3.3c0.9-3,0.6-6.5-0.1-9.6
			c-0.8-3.3-2.8-6.4-3.9-9.7c-2-5.8-0.7-11.6,3.6-13c3-1,6.9-0.8,9.8,0.3c1,0.4,0.2,5.3,0.2,8.2c-0.5,0-0.9,0-1.4,0
			c-0.1-0.7-0.1-1.5-0.2-2.2c0-2.6-0.3-5.8-3.6-5.2c-1.5,0.3-3.7,3.7-3.5,5.4c0.3,3.3,2.4,6.5,3.3,9.8c1.1,4.4,2.7,9,2.2,13.3
			c-0.8,7.1-10.3,10.7-16.5,7.2C470,544.1,470.5,539.5,475.7,534.3z"/>
		<path d="M413.3,543.8c2.9-2.5,4.5-3.9,6.1-5.3c-0.2,3.5-4.4,8.6-7.6,9.1c-3.5,0.6-5.3-1.3-4.9-4.5c1.1-7,2.6-14,4-20.9
			c0.4-1.9,1.2-3.8,2.1-6.5c-1.9,1.3-3.1,2.1-4.2,3c-0.3-0.3-0.6-0.7-0.8-1c3.8-3.1,7.6-6.3,11.4-9.4c0.4,0.3,0.8,0.6,1.2,0.9
			C417.6,520.1,412.5,530.6,413.3,543.8z"/>
		<path d="M294.1,410.9c-1.7,1.5-2.7,2.4-3.7,3.3c-0.3-0.4-0.7-0.7-1-1.1c3.7-3.3,7.4-6.5,11.8-10.3c-2.7,12.7-7.7,24.4-6.8,37
			c0.5,0.2,1,0.4,1.4,0.6c1.5-1.8,3-3.6,4.5-5.4c0.3,0.2,0.7,0.5,1,0.7c-2.1,3-3.9,6.3-6.5,8.8c-2.7,2.7-6.2,1.3-6.1-2.7
			c0.1-5.8,0.9-11.6,1.9-17.3C291.3,420.3,292.8,416.1,294.1,410.9z"/>
		<path d="M318.2,380.5c2.7,4.3,5,7.9,7.2,11.5c-0.4,0.4-0.7,0.8-1.1,1.2c-3.1-2.1-6.8-3.8-9.3-6.5
			C311.7,383.1,315.9,382.4,318.2,380.5z"/>
		<path d="M429.6,485.2c-3.4,6.2-6.1,11.2-8.8,16.3C418.2,497.2,421.5,490.6,429.6,485.2z"/>
		<path d="M308.7,378.8c-2.6,5.7-5.1,11.1-7.7,16.8C299.3,390.3,302.8,382.7,308.7,378.8z"/>
	</g>
</g>
</svg>
