<?xml version="1.0" encoding="utf-8"?>
<!-- Generator: Adobe Illustrator 19.0.0, SVG Export Plug-In . SVG Version: 6.00 Build 0)  -->
<svg version="1.1" id="Calque_1" xmlns="http://www.w3.org/2000/svg" xmlns:xlink="http://www.w3.org/1999/xlink" x="0px" y="0px"
	 viewBox="-111 276.2 388.6 240.8" style="enable-background:new -111 276.2 388.6 240.8;" xml:space="preserve">
<style type="text/css">
	.st0{opacity:0.75;}
	.st1{fill:#BFBFBF;}
</style>
<g id="Calque_1_1_" class="st0">
	<g>
		<path class="st1" d="M206.8,360.9c-8.8,29.2-17.4,57.9-26,86.6c-2.1-0.3-1.9-1.2-1.9-2c-0.8-26.6-1.6-53.2-2.3-79.8
			c-0.2-6.4,0.2-6.7,6.8-6.6C190.9,359.3,198.4,358.9,206.8,360.9z"/>
		<path class="st1" d="M146.6,357.5c9,0.4,16.8,0.7,24.7,1.3c2.5,0.2,2.7,2.4,2.8,4.6c0.2,5.6,0.6,11.3,0.8,16.9
			c0.5,23.8,1.2,47.5,2.8,71.3c0,0.3-0.2,0.6-0.9,2.4C166.6,421.3,156.7,389.9,146.6,357.5z"/>
		<path class="st1" d="M237.7,357.5c-17.7,31.2-35.2,61.8-52.6,92.5c-0.4-0.1-0.7-0.3-1.1-0.4c2.2-7.7,4.3-15.5,6.6-23.2
			c6.1-20.3,12.3-40.4,18.3-60.7c1.3-4.3,3.3-6.4,7.9-6.6c4.3-0.2,8.6-1.1,12.8-1.8C232.1,356.9,234.5,356.6,237.7,357.5z"/>
		<path class="st1" d="M168.5,444.3c-16.8-30.2-33.2-59.5-49.9-89.5c5.4-1.4,9.5,0.9,13.7,0.8c8.6-0.2,12,4.2,14.3,12.3
			c6.5,23.1,14.1,45.8,21.3,68.7C168.5,438.8,169.3,441,168.5,444.3z"/>
		<path class="st1" d="M195.6,436.7c10.3-18.2,20.6-36.5,30.9-54.7c4.3-7.5,8.6-15,12.7-22.6c1.6-2.9,3.6-4.6,6.9-4.9
			c5.9-0.6,11.8-1.4,17.6-2.2c0.7,2.5-0.9,3.6-1.8,4.8c-21,26-42.1,51.9-63.2,77.9c-0.7,0.9-1.7,1.6-2.5,2.4
			C196,437.1,195.8,436.9,195.6,436.7z"/>
		<path class="st1" d="M175.4,351.1c-1.8-3.6-1.8-7.4-2.5-10.9c-2-11-3.7-22-5.6-32.9c-0.6-3.1-0.4-5.3,3.5-5.4
			c9.5-0.2,18.9-0.6,28.4-0.8c3.6-0.1,4.6,1.6,2.9,4.7c-8.4,14.9-16.9,29.8-25.4,44.6C176.5,350.6,176.1,350.7,175.4,351.1z"/>
		<path class="st1" d="M162.2,440.5c-22.4-29.9-44.5-59.5-66.7-89.1c8.3-2.7,19.2,1.3,23.1,8.2c14.4,25.7,28.7,51.5,43.1,77.2
			C162.3,437.7,163,438.5,162.2,440.5z"/>
		<path class="st1" d="M210.9,306c0.7,6.5,5.6,10.8,8.7,15.9c5.9,9.6,12.2,18.9,18.2,28.3c-1.7,2.5-4,2.3-6,2.6
			c-5.1,0.7-10.3,1.1-15.3,2.1c-4.5,0.9-6-0.7-6.3-5c-0.6-11.6-1.5-23.2-2.1-34.8c-0.2-3.3-1.4-6.5-0.6-9.7
			C209,304.7,209.8,306.3,210.9,306L210.9,306z"/>
		<path class="st1" d="M160,307.7c-2.1,6.1-4.2,12.1-6.3,18.2c-2.5,7.1-5.1,14.1-7.4,21.2c-1.4,4.3-3.4,6.3-8.3,5.2
			c-5.3-1.3-10.8-1.6-16.3-2.4c-1.4-0.2-3.1,0.1-4.3-2.1c13.8-13.5,27.8-27,41.7-40.6C159.3,307.4,159.7,307.6,160,307.7z"/>
		<path class="st1" d="M178.1,353.1c8-14.1,16.2-28.5,25.1-44.2c2.3,9.5,1.7,17.6,2.8,25.6c0.7,5.6,0.8,11.3,1.1,16.9
			c0.2,2.6-0.4,5-3.6,4.6c-7.6-1-15.3-0.5-22.9-1C179.7,354.9,178.9,354.6,178.1,353.1z"/>
		<path class="st1" d="M165,307.5c1.2,6.6,2.4,13.2,3.5,19.8c1.2,7.2,2.3,14.5,3.4,21.7c0.6,3.6-0.7,5.4-4.5,5.2
			c-5.2-0.2-10.3-0.2-15.5-0.5c-2.1-0.1-4.3-0.7-3.2-3.6C153.7,335.9,158.3,321.5,165,307.5z"/>
		<path class="st1" d="M211,306c0.2-1.1-1-2.2,0.2-3.6c7.9,0.9,15.9,1.8,23.9,2.8c2,0.2,3.5,1.6,3.6,3.6c0.1,12.5,0.1,25.1,0.1,37.6
			c-1.4-0.6-2.2-2.6-3.3-4.3c-7.2-11.1-14.5-22.3-21.7-33.4C213,307.6,212.4,306.4,211,306C210.9,306,211,306,211,306z"/>
		<path class="st1" d="M118.8,341.9c4.6-11.2,9.3-22.4,13.8-33.6c1.4-3.6,4-5.1,7.7-5.1c6.1-0.1,12.3-0.3,18.4-0.4
			c0.2,0.2,0.4,0.4,0.6,0.6c-12.8,12.7-25.5,25.4-38.3,38c-0.5,0.4-1.1,0.7-1.7,1C119.1,342.2,118.9,342,118.8,341.9z"/>
		<path class="st1" d="M243.1,313c7.5,11.1,15,22.2,23.4,34.6c-7.6,1-14,1.8-20.3,2.5c-2.2,0.2-3.2-1.1-3.5-3.3
			c-1.3-11-0.7-22.1-1.5-33.1C241.8,313.5,242.5,313.2,243.1,313z"/>
		<path class="st1" d="M128,313.3c-1.1,2.8-3.1,7.8-5.2,12.8c-2.5,6.2-5.1,12.3-7.5,18.5c-1.1,2.8-2.6,3.8-5.6,3.3
			c-5.1-0.7-10.2-1.1-14.7-2.5C106.5,334.3,117.9,323.2,128,313.3z"/>
		<path class="st1" d="M158.6,302.7c0.6-0.3,0.9-0.1,0.6,0.6C159,303.1,158.8,302.9,158.6,302.7z"/>
		<path class="st1" d="M119.2,342.3c-0.5,0.2-0.7,0.1-0.4-0.4C118.9,342,119.1,342.2,119.2,342.3z"/>
		<path class="st1" d="M196.2,437.3c-0.7,0.3-0.9,0.1-0.6-0.6C195.8,436.9,196,437.1,196.2,437.3z"/>
	</g>
</g>
<g id="Calque_2">
	<g>
		<g>
			<path d="M-24.4,294c-9.5-5.4-18.9-9.3-29.4-9.7c-6.5-0.3-11.5,2.9-13.9,8.8c-2.5,6.1-4,12.5-6.2,19.5c0.7-11,2.4-20.9,9.8-28.8
				c5.8-6.2,13.3-6.9,20.8-5.1c9.6,2.4,18.9,5.9,28.3,8.9c-11.1,25.4-13.5,51.6-16.8,77.7c13.5-32.4,29-63.5,53.5-89.1
				c0.5,0.2,1,0.5,1.4,0.7c-0.6,1.4-1.1,2.9-1.8,4.2C7.3,306.8,1,334.4,1.2,363.6c0,3.8,0.9,7.6,1.8,11.3c0.3,1.4,1.9,3.2,3,3.3
				c1.2,0.2,3-1.2,4-2.3c1.5-1.9,2.5-4.1,4-6.6c0.1,5.2-5.7,14.9-9.8,16.4c-4.2,1.5-6.7-1.1-7.4-4.5c-1.2-5.8-2.2-11.8-2.1-17.7
				c0.4-22,5-43.2,12.8-63.8c0.4-1.1,0.9-2.2,1.2-3.2c0-0.1-0.1-0.3-0.4-1.2c-3.3,5-6.5,9.4-9.4,14.1c-13.4,21.9-24.5,45-32.2,69.5
				c-0.9,2.7-3.1,5.1-5.6,7.2c0.3-26.1,4.4-51.5,10.1-76.8c-0.9,1.9-1.8,3.9-2.6,5.8c-0.9,2-1.7,4-2.7,5.9
				c-8.3,18.2-16.7,36.4-30.4,51.3c-7.3,7.9-15.5,14.1-27.1,13.8c-6-0.2-10.6-2.6-13.9-7.4c-7.4-10.6-7.3-30.8,0.3-41.3
				c1.5-2,3.5-3.6,5.9-4.9c-4.5,6.6-6,13.8-5.4,21.3c0.4,4.8,1.1,9.7,2.7,14.1c4,11.4,13.1,15.4,23.8,10c5.4-2.7,10.4-6.7,14.5-11.2
				c13-14,20.9-31.1,28.7-48.3C-31.3,310.5-28,302.4-24.4,294z"/>
			<path d="M149.5,469.1c-5.1,2.2-9.6,5.2-14.4,6.1c-10.7,2-17.8-3.8-19-14.6c-1.8-16.8,3.4-31.8,11.8-46.1
				c5.9-10.1,13.4-18.8,24.5-23.2c3.9-1.5,8.4-2.3,12.6-2.2c5.9,0.1,10.5,5,10.3,10.7c-0.2,6.8-3.6,12.4-7.1,18
				c-0.4-0.1-0.9-0.3-1.3-0.4c0.3-1.3,0.6-2.6,1-3.8c1.8-5.3,3.7-11-1.4-15.3c-5.2-4.4-11.5-3.6-17.5-1c-9.3,4-14.9,11.6-18.9,20.4
				c-6.1,13.5-7.7,27.8-5.9,42.5c0.6,5,2.1,10,7.6,11.9c5.1,1.7,11.8-0.7,15.4-5.9c2.2-3.2,3.8-7,5.1-10.7c1.3-4,3.5-5.8,7.9-5.2
				c0.1,0.9,0.4,1.7,0.2,2.4c-3.1,15.1-7.3,29.7-15.3,43c-7.1,11.7-16.6,19.9-30.8,21.2c-11.4,1.1-20.7-4.2-24-13.8
				c-3.8-11.3-0.3-23.5,8.4-29c0.6-0.4,1.4-0.6,2.9-0.6c-5.6,5.9-5.8,12.9-5.4,20C97,506,103.9,514,114.4,514
				c7.5,0.1,14-2.7,19.1-8.3C142.7,495.1,146,482.1,149.5,469.1z"/>
			<path d="M48.5,343.6c-4.3,11.8-8.5,23.4-7.3,36c0.4,0.2,0.9,0.5,1.3,0.7c1.3-1.4,2.7-2.9,4.4-4.7c-0.2,1.2-0.1,2.3-0.6,2.8
				c-2.5,2.6-5.4,7.4-7.6,7.2c-4.3-0.5-3-5.7-3.3-9.2c-0.1-1.1-0.2-2.2-0.3-3.9c-2.6,4-4.6,7.6-7.2,10.7c-1.2,1.4-3.7,2.7-5.4,2.5
				c-1.3-0.2-2.9-2.7-3.2-4.5c-2.9-13.6,1-25.3,10.8-35c3.2-3.1,6.9-4.1,11.4-1.9C43.1,345.1,45.6,343.9,48.5,343.6z M25.7,379.4
				c0.6,0.2,1.1,0.4,1.7,0.6c1.5-2.1,3.3-4,4.3-6.3c2.8-6.5,5.3-13.2,8-19.9c1.1-2.8,0.9-5.3-1.9-6.9c-3-1.8-5.8-0.6-7.4,1.9
				c-2,3.2-3.8,6.7-4.7,10.3C24,365.8,22.7,372.7,25.7,379.4z"/>
			<path d="M70.7,323.3c-2.1,6.8-4.2,13.5-6.4,20.5c2.9,0.1,5.2,0.2,8.5,0.4c-1.4,1-2,1.8-2.5,1.7c-6-0.9-7.7,2.6-8.3,7.7
				c-0.9,7.3-2.1,14.5-2.8,21.7c-0.2,1.6,1.3,3.5,1.9,5.2c1.5-1.2,3-2.3,4.3-3.6c0.9-0.8,1.4-2,3.1-2.5c-1.5,2.7-2.5,5.8-4.6,7.9
				c-1.7,1.8-5.1,3.8-6.9,3.2c-1.8-0.6-3.6-4.3-3.7-6.7c-0.2-4.6,0.5-9.3,1.3-13.9c0.9-5.6,2.2-11.1,3.3-16.8c-1.6,0-3,0-4.4,0
				c0-0.4-0.1-0.7,0-0.7c7.5-3.7,7.6-11.6,10.2-18.1C65.6,324.8,66.3,324.1,70.7,323.3z"/>
			<path d="M152.7,373.8c-0.4,6-6,12.1-10.8,12.5c-3.7,0.3-5.9-1.3-7.2-4.8c-3.2-8.9,2.3-30.1,9.5-36.4c4.2-3.7,9.2-2.3,11,3
				c2,6.1-1.5,12.2-8.5,14.8c-2.3,0.8-6.1,1.6-6.3,2.9c-0.6,3.6-0.3,7.7,0.7,11.3c1.1,4,4.8,4.3,7.7,1.2
				C150,376.9,151.2,375.6,152.7,373.8z M140.1,361.4c7.2-0.7,10.5-4.6,9.3-9.8c-0.3-1.2-1.4-3-2.4-3.2c-1-0.2-3,1-3.5,2
				C142.2,353.7,141.3,357.3,140.1,361.4z"/>
			<path d="M106.9,373.5c-0.9,6-6.1,11.9-10.3,12.5c-3.8,0.6-6.3-0.9-7.6-4.7c-3-8.9,2.4-29.7,9.5-35.9c2.7-2.4,5.8-3.6,8.9-0.7
				c3.3,3,3.6,10.1,0.1,13.2c-3,2.7-7,4.2-10.5,6.4c-1.2,0.8-2.7,2.2-2.9,3.6c-0.4,2.4-0.4,5.1,0.2,7.4c0.5,1.8,2,4.2,3.6,4.6
				c1.6,0.4,3.9-1,5.6-2.1C104.6,377,105.3,375.5,106.9,373.5z M93.8,361.9c7.8-1.5,10.7-5.2,9.2-10.7c-0.3-1.1-1.5-2.7-2.2-2.7
				c-1.2,0-2.9,1-3.3,2C96,353.9,95.1,357.6,93.8,361.9z"/>
			<path d="M251.3,477.7c-0.1,4.3-6,9.9-11.2,10.3c-5.3,0.4-8.2-1.8-8.5-8c-0.5-10.9,2.6-20.8,10.5-28.6c3.5-3.5,8-3.6,10.7-0.7
				c3.3,3.4,3.3,8.9-0.8,11.9c-3.1,2.3-7.1,3.3-10.6,5.2c-1.4,0.8-3.2,2.3-3.3,3.6c-0.4,3.8-1.5,8.5,3,10.6c1.7,0.8,4.6-0.4,6.7-1.3
				C249.2,480.3,250.2,478.7,251.3,477.7z M237.6,465.7c8.2-0.7,12-4.1,10.6-9c-0.4-1.4-1.7-3-2.9-3.5c-0.9-0.3-3.2,0.7-3.7,1.7
				C240.1,458.3,239,461.8,237.6,465.7z"/>
			<path d="M113.2,386.1c2.1-12.7,4.2-25,6.3-37.3c-0.6-0.3-1.2-0.5-1.8-0.8c-1.4,1.5-2.8,3-4.2,4.4c-0.3-0.2-0.5-0.3-0.8-0.5
				c0.9-1.6,1.4-3.7,2.7-4.8c2-1.7,4.6-2.7,7-4c0.6,2.1,1.2,4.2,1.7,6.3c0.2,0.6,0.2,1.3,0.4,2.6c1.7-2.6,2.9-5,4.7-6.8
				c1.2-1.2,3.5-2.1,5.1-1.8c1,0.2,2,2.9,2,4.5c-0.1,2.4-1,4.7-1.6,7.4c-4-3.6-6.2-3.6-7.8,0.8c-2.7,7.3-4.5,14.8-6.4,22.4
				C119.3,382.5,119,386.4,113.2,386.1z"/>
			<path d="M165.4,487.5c3-11.4,6-22.5,6.4-35c-1.8,1.1-2.7,1.5-3.4,2.1c-0.7,0.6-1.1,1.5-2,2.8c0.2-4.4,4.7-9.3,7.8-8.7
				c6,1.2,2.9,6,3.4,9.4c1.7-2.4,3-5.1,5.1-7c1.5-1.3,4-1.5,6.1-2.2c0.5,2,1.3,3.9,1.4,5.9c0,1.5-0.9,3.1-1.4,4.8
				c-4-3.3-7-3.1-9,1.7c-3,7-5,14.4-7.1,21.7C171.5,486.8,169.7,488.6,165.4,487.5z"/>
			<path d="M174.4,354.1c0-1.6,0.4-3.3-0.1-4.7c-0.4-1.3-1.8-2.4-2.7-3.5c-1,1.2-3,2.4-3,3.5c0.3,3.9,1.1,7.8,2.1,11.6
				c0.8,3.4,2.6,6.5,3.1,9.9c0.8,5.1,0.1,10.2-4.4,13.5c-3.6,2.7-7.8,3.1-11.6,0.4c-3.9-2.7-2.6-6.4-1.1-9.9
				c0.5-1.3,1.4-2.5,2.9-3.4c-0.2,2.3-0.9,4.8-0.3,6.9c0.5,1.9,2.4,3.4,3.7,5.1c1.6-1.5,4.4-3,4.5-4.5c0.1-4.5-0.7-9.1-1.6-13.6
				c-0.8-4.5-2.6-8.9-2.9-13.4c-0.1-2.4,1.5-6.1,3.4-7.1c2.5-1.4,7-2.1,9-0.7c3.8,2.6,1.3,6.6,0.2,10
				C175.3,354.2,174.9,354.2,174.4,354.1z"/>
			<path d="M207.9,473.8c-0.3,3.3-1.2,5.8-0.6,7.8c0.5,1.7,2.4,4,4,4.2s4.7-1.4,5.1-2.7c0.8-3.2,0.9-6.8,0.3-10
				c-0.7-3.3-2.7-6.4-3.9-9.7c-2.2-6-0.8-11.9,3.8-13.4c2.9-1,6.9-1.1,9.3,0.3c1.4,0.8,0.6,5.4,0.8,8.2c-0.6,0-1.1,0.1-1.7,0.1
				c-0.1-1.5,0.1-3.1-0.5-4.3c-0.6-1.3-1.9-2.8-3.2-3.1c-0.8-0.2-3,1.5-3,2.4c0,3.2,0.3,6.5,1.1,9.6c1.1,4,3.5,7.6,4.3,11.6
				c1.4,6.6-2.8,12.4-9,13.2c-3.8,0.5-8.2,0.8-10.3-3.2C202.2,480.8,205,477.7,207.9,473.8z"/>
			<path d="M258.8,474.6c-0.3,2.2-1.2,4.4-0.6,6.2c0.6,1.9,2.4,4.8,3.8,4.9c1.9,0.1,5.2-1.7,5.7-3.3c0.9-3,0.6-6.5-0.1-9.6
				c-0.8-3.3-2.8-6.4-3.9-9.7c-2-5.8-0.7-11.6,3.6-13c3-1,6.9-0.8,9.8,0.3c1,0.4,0.2,5.3,0.2,8.2c-0.5,0-0.9,0-1.4,0
				c-0.1-0.7-0.1-1.5-0.2-2.2c0-2.6-0.3-5.8-3.6-5.2c-1.5,0.3-3.7,3.7-3.5,5.4c0.3,3.3,2.4,6.5,3.3,9.8c1.1,4.4,2.7,9,2.2,13.3
				c-0.8,7.1-10.3,10.7-16.5,7.2C253.1,484.4,253.6,479.8,258.8,474.6z"/>
			<path d="M196.4,484.1c2.9-2.5,4.5-3.9,6.1-5.3c-0.2,3.5-4.4,8.6-7.6,9.1c-3.5,0.6-5.3-1.3-4.9-4.5c1.1-7,2.6-14,4-20.9
				c0.4-1.9,1.2-3.8,2.1-6.5c-1.9,1.3-3.1,2.1-4.2,3c-0.3-0.3-0.6-0.7-0.8-1c3.8-3.1,7.6-6.3,11.4-9.4c0.4,0.3,0.8,0.6,1.2,0.9
				C200.7,460.4,195.6,470.9,196.4,484.1z"/>
			<path d="M77.2,351.2c-1.7,1.5-2.7,2.4-3.7,3.3c-0.3-0.4-0.7-0.7-1-1.1c3.7-3.3,7.4-6.5,11.8-10.3c-2.7,12.7-7.7,24.4-6.8,37
				c0.5,0.2,1,0.4,1.4,0.6c1.5-1.8,3-3.6,4.5-5.4c0.3,0.2,0.7,0.5,1,0.7c-2.1,3-3.9,6.3-6.5,8.8c-2.7,2.7-6.2,1.3-6.1-2.7
				c0.1-5.8,0.9-11.6,1.9-17.3C74.4,360.6,75.9,356.4,77.2,351.2z"/>
			<path d="M101.3,320.8c2.7,4.3,5,7.9,7.2,11.5c-0.4,0.4-0.7,0.8-1.1,1.2c-3.1-2.1-6.8-3.8-9.3-6.5
				C94.8,323.4,99,322.7,101.3,320.8z"/>
			<path d="M212.7,425.5c-3.4,6.2-6.1,11.2-8.8,16.3C201.3,437.5,204.6,430.9,212.7,425.5z"/>
			<path d="M91.8,319.1c-2.6,5.7-5.1,11.1-7.7,16.8C82.4,330.6,85.9,323,91.8,319.1z"/>
		</g>
	</g>
</g>
</svg>
